# xmcd
#
# Track frame offsets:
#	150
#	25422
#	40415
#	59507
#	84067
#	107785
#	131612
#	152302
#	173567
#	194047
#
# Disc length: 2910 seconds
#
# Revision: 3
# Processed by: cddbd v1.5.2PL0 Copyright (c) Steve Scherf et al.
# Submitted via: EZCDAudioConverter 8.0.2.1
#
DISCID=7c0b5c0a
DTITLE=Don Hồ, Ngọc Huệ, Duy Mạnh, Ngọc Hương - Đến Với Em Đêm Này
DYEAR=1994
DGENRE=Easy Listening
TTITLE0=Don Ho - Người tình gian dối
TTITLE1=Ngọc Huệ - Nào biết nào hay
TTITLE2=Don Ho - Khi em cần anh
TTITLE3=Ngọc Huệ - Sao không đến bên em
TTITLE4=Don Ho - Đến Với Em Đêm Này
TTITLE5=Duy Mạnh - Đàn trong đêm vắng
TTITLE6=Ngọc Hương - Giấc mơ tình nồng
TTITLE7=Duy Mạnh - Biệt khúc
TTITLE8=Ngọc Hương - CHiều mưa thương nhớ
TTITLE9=Ngọc Huệ - Bài ca ngọi tình yêu
EXTD=
EXTT0=
EXTT1=
EXTT2=
EXTT3=
EXTT4=
EXTT5=
EXTT6=
EXTT7=
EXTT8=
EXTT9=
PLAYORDER=
